<svg xmlns="http://www.w3.org/2000/svg" data-name="Layer 1" viewBox="0 0 100 125" x="0px" y="0px"><title>Salt</title><path d="M83.12,57.52a3.2,3.2,0,0,0-2.34-1.84,3,3,0,0,0-2.64.81l-.93.93-4-4a5.41,5.41,0,0,0-.77-5.86L40.76,10.87a5.4,5.4,0,0,0-7.91-.29L12.06,31.37a5.4,5.4,0,0,0,.29,7.91L49.06,71a5.35,5.35,0,0,0,5.85.76l4,4-.93.93a3,3,0,0,0-.81,2.64A3.2,3.2,0,0,0,59,81.64a16.6,16.6,0,0,0,3.13,1,17,17,0,0,0,3.8.42,18.74,18.74,0,0,0,13.15-5.52A18.12,18.12,0,0,0,83.12,57.52Zm-32,11.13L14.36,36.95a2.32,2.32,0,0,1-.13-3.39L35,12.76a2.29,2.29,0,0,1,1.64-.68h.09a2.3,2.3,0,0,1,1.67.8L70.12,49.6A2.33,2.33,0,0,1,70,52.75L54.23,68.53A2.33,2.33,0,0,1,51.08,68.64Zm20.2-12.79L75,59.57,61.05,73.52l-3.72-3.72Zm5.62,19.56a15.34,15.34,0,0,1-14.08,4.27,13.51,13.51,0,0,1-2.55-.85.13.13,0,0,1-.06-.05l20-20a.13.13,0,0,1,.05.06A15,15,0,0,1,76.89,75.41Z"/><circle cx="75.21" cy="73.48" r="1.54" transform="translate(-29.93 74.7) rotate(-45)"/><circle cx="70.25" cy="76.43" r="1.54" transform="translate(-33.47 72.06) rotate(-45)"/><circle cx="78.28" cy="68.45" r="1.54" transform="translate(-25.47 75.4) rotate(-45)"/><circle cx="83.68" cy="78.25" r="1.54" transform="translate(-30.82 82.09) rotate(-45)"/><circle cx="77.07" cy="83.7" r="1.54" transform="translate(-36.61 79.01) rotate(-45)"/><circle cx="82.41" cy="83.99" r="1.54" transform="translate(-35.25 82.87) rotate(-45)"/><circle cx="87.98" cy="89.46" r="1.54" transform="translate(-37.49 88.42) rotate(-45)"/><circle cx="87.28" cy="83.29" r="1.54" transform="translate(-33.33 86.11) rotate(-45)"/><circle cx="81.8" cy="89.27" r="1.54" transform="translate(-39.16 83.99) rotate(-45)"/><text x="0" y="115" fill="#000000" font-size="5px" font-weight="bold" font-family="'Helvetica Neue', Helvetica, Arial-Unicode, Arial, Sans-serif">Created by Sneha</text><text x="0" y="120" fill="#000000" font-size="5px" font-weight="bold" font-family="'Helvetica Neue', Helvetica, Arial-Unicode, Arial, Sans-serif">from the Noun Project</text></svg>