<?xml version="1.0" encoding="UTF-8" standalone="no"?>
<svg
   xmlns:dc="http://purl.org/dc/elements/1.1/"
   xmlns:cc="http://creativecommons.org/ns#"
   xmlns:rdf="http://www.w3.org/1999/02/22-rdf-syntax-ns#"
   xmlns:svg="http://www.w3.org/2000/svg"
   xmlns="http://www.w3.org/2000/svg"
   xmlns:sodipodi="http://sodipodi.sourceforge.net/DTD/sodipodi-0.dtd"
   xmlns:inkscape="http://www.inkscape.org/namespaces/inkscape"
   sodipodi:docname="noun_Heart.svg"
   inkscape:version="1.0 (4035a4f, 2020-05-01)"
   id="svg179"
   version="1.1"
   viewBox="0 0 210 297"
   height="297mm"
   width="210mm">
  <defs
     id="defs173" />
  <sodipodi:namedview
     inkscape:window-maximized="0"
     inkscape:window-y="23"
     inkscape:window-x="0"
     inkscape:window-height="1174"
     inkscape:window-width="1252"
     showgrid="false"
     inkscape:document-rotation="0"
     inkscape:current-layer="layer1"
     inkscape:document-units="mm"
     inkscape:cy="446.22217"
     inkscape:cx="230.18141"
     inkscape:zoom="1.4"
     inkscape:pageshadow="2"
     inkscape:pageopacity="0.0"
     borderopacity="1.0"
     bordercolor="#666666"
     pagecolor="#ffffff"
     id="base" />
  <metadata
     id="metadata176">
    <rdf:RDF>
      <cc:Work
         rdf:about="">
        <dc:format>image/svg+xml</dc:format>
        <dc:type
           rdf:resource="http://purl.org/dc/dcmitype/StillImage" />
        <dc:title></dc:title>
      </cc:Work>
    </rdf:RDF>
  </metadata>
  <g
     id="layer1"
     inkscape:groupmode="layer"
     inkscape:label="Layer 1">
    <g
       transform="matrix(0.26458333,0,0,0.26458333,15.286545,34.597198)"
       id="g204">
      <g
         id="g185">
        <path
           d="m 356.975,98.317 c -48.204,-8.428 -84.414,25.802 -100.979,45.644 -16.535,-19.852 -52.817,-54.092 -100.979,-45.644 -47.552,8.24 -82.683,51.251 -81.73,100.045 0.891,45.021 26.86,93.878 77.189,145.213 29.803,30.384 64.158,54.175 102.13,70.72 1.078,0.456 2.239,0.705 3.39,0.705 1.151,0 2.312,-0.249 3.39,-0.705 37.973,-16.545 72.327,-40.336 102.13,-70.72 50.34,-51.345 76.308,-100.202 77.199,-145.213 0.952,-48.794 -34.19,-91.805 -81.74,-100.045 z m -7.59,233.358 c -27.368,27.917 -58.777,49.945 -93.392,65.537 -34.614,-15.591 -66.024,-37.62 -93.392,-65.537 -47.199,-48.132 -71.539,-93.101 -72.337,-133.644 -0.787,-40.481 28.29,-76.162 67.652,-82.983 4.064,-0.705 8.013,-1.027 11.88,-1.027 40.916,0 70.616,36.614 79.293,48.722 1.596,2.229 4.168,3.546 6.904,3.546 2.737,0 5.308,-1.317 6.894,-3.535 9.517,-13.248 44.307,-55.855 91.183,-47.707 39.362,6.821 68.45,42.502 67.641,82.983 -0.787,40.534 -25.117,85.502 -72.326,133.645 z"
           id="path181" />
        <path
           d="m 179.511,141.875 c -24.465,0.777 -42.917,11.652 -53.356,31.483 -6.065,11.538 -8.635,23.335 -7.619,35.059 0.383,4.426 4.084,7.765 8.449,7.765 0.249,0 0.487,-0.011 0.736,-0.032 4.676,-0.404 8.138,-4.52 7.734,-9.185 -0.726,-8.438 1.202,-17.095 5.732,-25.699 7.526,-14.295 20.598,-21.842 38.864,-22.412 4.685,-0.145 8.365,-4.074 8.221,-8.76 -0.157,-4.673 -3.287,-8.384 -8.761,-8.219 z"
           id="path183" />
      </g>
    </g>
  </g>
</svg>
