<svg xmlns="http://www.w3.org/2000/svg" data-name="Layer 1" viewBox="0 0 100 125" x="0px" y="0px"><path d="M60.89844,41.2876,33.11328,6.66846A.99928.99928,0,0,0,32.0166,6.3457l-10.25,3.417a.99664.99664,0,0,0-.39062.24169L7.71,23.67041a1.00267,1.00267,0,0,0-.24121.39063l-3.417,10.25A.99916.99916,0,0,0,4.374,35.40723L38.99316,63.19287a.9997.9997,0,0,0,1.333-.07275l20.499-20.49951A1.00041,1.00041,0,0,0,60.89844,41.2876ZM39.5459,61.07227,6.169,34.2832,9.291,24.91748l13.332-13.332,9.36621-3.12207,26.78808,33.377Z"/><path d="M10.916,34.229a1.00012,1.00012,0,0,0,.31445,1.19678L39.0166,56.37842a1.00024,1.00024,0,0,0,1.30957-.09131l13.666-13.6665a.99949.99949,0,0,0-.53418-1.6919L12.00586,33.64258A.99747.99747,0,0,0,10.916,34.229Zm40.30273,8.33692L39.52734,54.2583,15.75488,36.332Z"/><path d="M77.34961,64.06982a.93289.93289,0,0,0-.33008-.21.9898.9898,0,0,0-1.2998,1.29981.83185.83185,0,0,0,.21972.33008.96915.96915,0,0,0,.7002.29.98931.98931,0,0,0,.37988-.06983.962.962,0,0,0,.33008-.22021.92849.92849,0,0,0,.21-.33008.94109.94109,0,0,0,0-.75977A1.154,1.154,0,0,0,77.34961,64.06982Z"/><path d="M82.29,76.06006a.99111.99111,0,0,0,0-1.42041.59494.59494,0,0,0-.15039-.11963.54772.54772,0,0,0-.16992-.09033.61415.61415,0,0,0-.18946-.06006.86483.86483,0,0,0-.39062,0,.84.84,0,0,0-.18945.06006.6833.6833,0,0,0-.16993.09033,1.42675,1.42675,0,0,0-.15039.11963,1.26421,1.26421,0,0,0-.21972.33008.97181.97181,0,0,0-.07032.37988.99749.99749,0,0,0,1.7002.71045Z"/><path d="M89.4502,73.6499a.82847.82847,0,0,0-.33008.21973,1.007,1.007,0,0,0-.29.70019,1.02955,1.02955,0,0,0,.29.71,1.00476,1.00476,0,0,0,.71.29,1.2325,1.2325,0,0,0,.18945-.00976c.07031-.02.12988-.04.19043-.06006.05957-.03027.12012-.06006.16992-.09033a.99092.99092,0,0,0,.4502-.83985,1.01133,1.01133,0,0,0-.29-.70019A1.025,1.025,0,0,0,89.4502,73.6499Z"/><path d="M86.30957,83.46973a.96947.96947,0,0,0-.29.70019.99183.99183,0,0,0,.29.71,1.00815,1.00815,0,0,0,.71.29.96593.96593,0,0,0,.7002-.29.99707.99707,0,0,0,.2998-.71.97485.97485,0,0,0-.2998-.70019A1.0244,1.0244,0,0,0,86.30957,83.46973Z"/><path d="M95.91992,83.79a.87915.87915,0,0,0-.21972-.32031.65591.65591,0,0,0-.1504-.12989.93553.93553,0,0,0-.16992-.08984c-.06054-.02-.12011-.04-.19043-.06006a1.00364,1.00364,0,0,0-.89941.27979,1.0413,1.0413,0,0,0-.29.70019,1.05122,1.05122,0,0,0,.08008.39014.98862.98862,0,0,0,.21.31982,1.00644,1.00644,0,0,0,.71.29.61132.61132,0,0,0,.18945-.02,1.08417,1.08417,0,0,0,.19043-.05029A.94064.94064,0,0,0,95.5498,85a.45478.45478,0,0,0,.1504-.12012.87738.87738,0,0,0,.21972-.31982A1.05122,1.05122,0,0,0,96,84.16992.99749.99749,0,0,0,95.91992,83.79Z"/><path d="M92.59961,92a1.03425,1.03425,0,0,0-1.41016,0,1.01027,1.01027,0,0,0-.21972.31982,1.03994,1.03994,0,0,0-.07032.39014,1.0078,1.0078,0,0,0,1,1,1.02547,1.02547,0,0,0,1-1,1.03036,1.03036,0,0,0-.08007-.39014A.86175.86175,0,0,0,92.59961,92Z"/><path d="M73.41992,72.09961A1.7452,1.7452,0,0,0,73.24023,72a.9994.9994,0,0,0-1.38085.92969,1.03868,1.03868,0,0,0,.29.70019,1.01811,1.01811,0,0,0,.71.29981.99142.99142,0,0,0,.38085-.08008l.17969-.08984a1.77235,1.77235,0,0,0,.14942-.12989,1.002,1.002,0,0,0,0-1.41015A.80552.80552,0,0,0,73.41992,72.09961Z"/><path d="M64.00977,75.87988a.97191.97191,0,0,0-.16993-.10009,1.27246,1.27246,0,0,0-.19043-.04981A.988.988,0,0,0,62.75,76a.95212.95212,0,0,0-.21973.32959,1.06271,1.06271,0,0,0,0,.76025,1.18822,1.18822,0,0,0,.21973.33008,1.03625,1.03625,0,0,0,.7002.29.99725.99725,0,0,0,.71-1.71A.87842.87842,0,0,0,64.00977,75.87988Z"/><path d="M71.18945,80.42969l-.17968-.08985a.93178.93178,0,0,0-.57032-.06c-.06933.02-.12988.04-.18945.06-.06055.02979-.12012.06006-.16992.08985a.62675.62675,0,0,0-.15039.13037.97767.97767,0,0,0-.29981.69971,1.00107,1.00107,0,0,0,.29981.71.61464.61464,0,0,0,.15039.12988c.0498.03027.10937.06006.16992.09033.05957.02.12012.04.18945.06006a1.25975,1.25975,0,0,0,.19043.02.99945.99945,0,0,0,.37989-.08008c.05957-.03027.12011-.06006.17968-.09033a1.50179,1.50179,0,0,0,.15039-.12988.98339.98339,0,0,0,.21-.31983.88632.88632,0,0,0,.08008-.39013,1.00929,1.00929,0,0,0-.29-.69971A1.57519,1.57519,0,0,0,71.18945,80.42969Z"/><path d="M70.7998,89.25977a1.54111,1.54111,0,0,0-.16992-.1001,1.15033,1.15033,0,0,0-.7705,0,1.0086,1.0086,0,0,0-.16993.1001.44519.44519,0,0,0-.14941.12011.979.979,0,0,0,0,1.41016.65056.65056,0,0,0,.14941.12988.96821.96821,0,0,0,.16993.08985,1.047,1.047,0,0,0,.19042.06005,1.24679,1.24679,0,0,0,.19043.02,1.03921,1.03921,0,0,0,.38965-.08007,1.42706,1.42706,0,0,0,.16992-.08985,1.951,1.951,0,0,0,.1504-.12988.9703.9703,0,0,0,.29-.7002.99183.99183,0,0,0-.29-.71A.82214.82214,0,0,0,70.7998,89.25977Z"/><path d="M79.91016,83.33984a.96919.96919,0,0,0-.16993-.08984,1.04689,1.04689,0,0,0-.19043-.06006,1.2714,1.2714,0,0,0-.38964,0,1.36081,1.36081,0,0,0-.19043.06006,1.4293,1.4293,0,0,0-.16993.08984,1.95081,1.95081,0,0,0-.15039.12989.96946.96946,0,0,0-.29.70019.99183.99183,0,0,0,.29.71,1.002,1.002,0,0,0,1.41016,0,.99708.99708,0,0,0,.29981-.71.97486.97486,0,0,0-.29981-.70019A.65035.65035,0,0,0,79.91016,83.33984Z"/><path d="M81.96973,91.71973l-.17969.06006c-.06055.03027-.12012.06-.18066.08984A1.69746,1.69746,0,0,0,81.46,92a1.2,1.2,0,0,0-.21973.31982,1.02112,1.02112,0,0,0-.07031.39014,1.00929,1.00929,0,0,0,.29.69971,1.00173,1.00173,0,0,0,1.41992,0A.98167.98167,0,0,0,83,93.25977a.56229.56229,0,0,0,.08984-.16993.591.591,0,0,0,.05957-.18994,1.14028,1.14028,0,0,0,.02051-.18994,1.00588,1.00588,0,0,0-1.20019-.99023Z"/><path d="M63.53516,44.33008a.99929.99929,0,0,0-.707.293l-20.5,20.49951a.99965.99965,0,0,0,0,1.41406,14.602,14.602,0,0,0,20.626,0l1.28809-1.28808a14.60085,14.60085,0,0,0,0-20.62549A.99928.99928,0,0,0,63.53516,44.33008Zm-.707,19.50439L61.54,65.12256a12.60364,12.60364,0,0,1-17.0625.6792L63.50684,46.772A12.60259,12.60259,0,0,1,62.82812,63.83447Z"/><text x="0" y="115" fill="#000000" font-size="5px" font-weight="bold" font-family="'Helvetica Neue', Helvetica, Arial-Unicode, Arial, Sans-serif">Created by Aidan Cooke</text><text x="0" y="120" fill="#000000" font-size="5px" font-weight="bold" font-family="'Helvetica Neue', Helvetica, Arial-Unicode, Arial, Sans-serif">from the Noun Project</text></svg>