<svg xmlns="http://www.w3.org/2000/svg" xmlns:xlink="http://www.w3.org/1999/xlink" version="1.1" x="0px" y="0px" viewBox="0 0 512 640" style="enable-background:new 0 0 512 512;" xml:space="preserve"><g><path d="M356.975,98.317c-48.204-8.428-84.414,25.802-100.979,45.644c-16.535-19.852-52.817-54.092-100.979-45.644   c-47.552,8.24-82.683,51.251-81.73,100.045c0.891,45.021,26.86,93.878,77.189,145.213c29.803,30.384,64.158,54.175,102.13,70.72   c1.078,0.456,2.239,0.705,3.39,0.705s2.312-0.249,3.39-0.705c37.973-16.545,72.327-40.336,102.13-70.72   c50.34-51.345,76.308-100.202,77.199-145.213C439.667,149.568,404.525,106.557,356.975,98.317z M349.385,331.675   c-27.368,27.917-58.777,49.945-93.392,65.537c-34.614-15.591-66.024-37.62-93.392-65.537   c-47.199-48.132-71.539-93.101-72.337-133.644c-0.787-40.481,28.29-76.162,67.652-82.983c4.064-0.705,8.013-1.027,11.88-1.027   c40.916,0,70.616,36.614,79.293,48.722c1.596,2.229,4.168,3.546,6.904,3.546c2.737,0,5.308-1.317,6.894-3.535   c9.517-13.248,44.307-55.855,91.183-47.707c39.362,6.821,68.45,42.502,67.641,82.983   C420.924,238.564,396.594,283.532,349.385,331.675z"/><path d="M179.511,141.875c-24.465,0.777-42.917,11.652-53.356,31.483c-6.065,11.538-8.635,23.335-7.619,35.059   c0.383,4.426,4.084,7.765,8.449,7.765c0.249,0,0.487-0.011,0.736-0.032c4.676-0.404,8.138-4.52,7.734-9.185   c-0.726-8.438,1.202-17.095,5.732-25.699c7.526-14.295,20.598-21.842,38.864-22.412c4.685-0.145,8.365-4.074,8.221-8.76   C188.115,145.421,184.985,141.71,179.511,141.875z"/></g><text x="0" y="527" fill="#000000" font-size="5px" font-weight="bold" font-family="'Helvetica Neue', Helvetica, Arial-Unicode, Arial, Sans-serif">Created by Econceptive</text><text x="0" y="532" fill="#000000" font-size="5px" font-weight="bold" font-family="'Helvetica Neue', Helvetica, Arial-Unicode, Arial, Sans-serif">from the Noun Project</text></svg>